<?xml version="1.0" encoding="utf-8"?>
<!-- Generator: Adobe Illustrator 26.5.0, SVG Export Plug-In . SVG Version: 6.00 Build 0)  -->
<svg width="188px" height="90px" version="1.1" id="Layer_1" xmlns="http://www.w3.org/2000/svg" xmlns:xlink="http://www.w3.org/1999/xlink" x="0px" y="0px"
	 viewBox="0 0 247.2 120.3" style="enable-background:new 0 0 247.2 120.3;" xml:space="preserve">
<style type="text/css">
	.st0{fill:#009ADE;}
</style>
<path class="st0" d="M69.8,13.9c1.6,2,4.5,3.1,6.2,5.1c-1.2-5.8-5.7-10.5-11-11.7C67.6,9.2,68.2,11.9,69.8,13.9z M6.2,28.6
	c3.6-7.9,9.1-6.3,11.4-13.8c-1.3,2.3-7.2,3.3-10,9.2c1.4-3.5,0.7-8.9,3.1-11.9C3.5,17.4,6.5,25.9,6.2,28.6z M12.8,47.6
	c0.7,3.1-1.3,7.6,1.8,11.8c-3.2-3.5-9.9-4.5-12.6-9.8c3.4,13.2,12.3,10.5,16.3,13.3C15,58.2,17.7,55,12.8,47.6z M11.7,55.9
	c-2-7.4,1.5-9.9-1.1-17c-0.3,4-2.9,5.9-1.1,13.2C6.3,45.9,1.4,43.6,0,39.4C0.1,51,9.4,52.7,11.7,55.9z M26,68.2
	c-2.7-3.8-0.9-5.9-8.6-12.8c1.6,2.5-0.1,5.7,5.1,10.6c-5.1-3-12.1-1.7-15.4-5.7C12.9,71.4,23.1,66.9,26,68.2z M63.2,66
	c5.2-4.9,3.5-8.1,5.1-10.6c-7.7,6.9-5.8,9-8.6,12.8c2.9-1.4,13.1,3.2,18.9-7.9C75.3,64.3,68.3,63,63.2,66z M71.3,59.4
	c3.1-4.3,1.1-8.7,1.8-11.8c-4.9,7.4-2.2,10.6-5.5,15.3c4-2.9,12.9-0.1,16.3-13.3C81.1,55,74.4,55.9,71.3,59.4z M59,68.8
	c-3-0.8-6.1-1.2-8.4-1.3c-2.9-0.1-5.4,0.5-7.7,1.3c-2.2-0.8-4.8-1.4-7.7-1.3c-2.3,0.1-5.4,0.5-8.4,1.3c-4.6,1.2-8.6,2.2-12.1,0.4
	c3.3,3,7.2,4,12.9,3.4c4.7-0.5,8.5-2.8,12.9-2.8c0.1,0,0.1,0,0.2,0c-4.7,2.4-7.3,5.7-7.3,5.7l2.1,0.3c0,0,2.2-4.5,7.4-5.7
	c5.2,1.2,7.4,5.7,7.4,5.7l2.1-0.3c0,0-2.6-3.3-7.3-5.7c0.1,0,0.1,0,0.2,0c4.4,0,8.2,2.3,12.9,2.8c5.6,0.6,9.5-0.5,12.9-3.4
	C67.6,71,63.6,70,59,68.8z M10.9,30.9C9,34.6,6.1,35.4,6.4,43C4.8,36.3,1,33.8,1,29.5C-1.7,40.7,5.4,42,7.3,46.7
	C7,40,11.3,38.6,10.9,30.9z M13.6,22.3c-0.7,0.9-1.1,1.3-2.9,2.8c-2.4,2-4.3,4.6-5.2,8.4c0.2-4.1-2.4-10-0.7-14.3
	c-6.5,9.2,0.4,14.7,0.6,18.1C7.2,30.8,11.1,30.8,13.6,22.3z M80.3,33.5c-0.8-3.8-2.7-6.4-5.2-8.4c-1.8-1.5-2.2-1.9-2.9-2.8
	c2.5,8.5,6.4,8.6,8.1,15c0.2-3.3,7.1-8.9,0.6-18.1C82.6,23.5,80.1,29.4,80.3,33.5z M85.8,39.4c-1.4,4.2-6.3,6.5-9.5,12.7
	c1.8-7.3-0.9-9.2-1.1-13.2c-2.7,7.1,0.8,9.6-1.1,17C76.4,52.7,85.7,51,85.8,39.4z M74.9,30.9c-0.4,7.7,3.9,9,3.7,15.8
	c1.8-4.7,8.9-6,6.3-17.2c0,4.3-3.8,6.8-5.4,13.5C79.8,35.4,76.8,34.6,74.9,30.9z M16,13.9c1.6-2,2.2-4.7,4.8-6.6
	c-5.3,1.1-9.8,5.9-11,11.7C11.5,17,14.4,15.8,16,13.9z M68.3,14.8c2.3,7.6,7.7,5.9,11.4,13.8c-0.4-2.7,2.7-11.2-4.5-16.4
	c2.4,2.9,1.7,8.3,3.1,11.9C75.5,18.1,69.6,17.1,68.3,14.8z M49.8,19c-1.4-0.6-2.8-1-4.3-1.2c0,0.3,0,0.6,0,1c1.4,0.2,2.7,0.6,4,1.1
	C49.6,19.7,49.7,19.4,49.8,19z M48.7,9.7L49,9.4l-0.6-0.2l-1.5,0l-0.4,0.3l-0.9-0.1l0,0.2c0.5,0,1.1,0.1,1.5,0.2l0.7-0.1L48.7,9.7z
	 M45.9,41.1c0-0.2-0.3-0.5-0.8-0.7l-0.1,0c0,0.2,0,1.2,0,1.7C45.5,41.8,45.9,41.5,45.9,41.1z M29,22.6c0-0.2,0.1-0.4,0.1-0.5
	c-0.2,0-0.4,0.1-0.6,0.1L29,22.6z M42.9,65.4c16.4,0,29.7-13.3,29.7-29.7c0-15.4-11.7-28-26.7-29.5c0,0.1,0,0.1,0,0.2
	c-0.1,0.3-0.1,0.5-0.2,0.8c6.7,0.7,12.7,3.6,17.3,8.1l-3.3,3.3l0.1-0.6l-0.4-0.2l-0.6,0l0.1-0.4L58.6,16l-0.8-0.9l-2.6-1.4L55,13.9
	l-0.5,0.1c0.9,1.3,1.4,2.8,1.4,4.3c0,0.2,0,0.4,0,0.6l1.3,1.6l-0.6,0.1l0.4,0.6l-1.1,1.1l-0.5-0.9c-0.2,0.6-0.5,1.2-0.8,1.7
	c0.1,0.1,0.2,0.2,0.3,0.2l-3.4,3.4c-0.2-0.2-0.4-0.4-0.7-0.6c-0.3,0.2-0.7,0.3-1,0.4c0.1,0.1,0.2,0.1,0.3,0.2l-0.2,0.2l-0.4,0.2
	l-0.2,0.4L49,27.5l-0.7,0.2l0.2,0.3L49,28l0.3,0l0-0.2l0.3-0.1l0.1-0.2l0.5-0.1l0.4,0c0.1,0.1,0.1,0.1,0.2,0.2L49.3,29l-0.1-0.1
	l-1.4,0.2l-0.3,0.3l-0.3,0l0.9-0.9l-0.3-0.2l-0.8,1.1l0.2,0l0,0.4l0.3,0.1l0.1,0.4L47,30.3l-0.5,0.1l-1.3-0.6c0,0-0.1,3.4-0.1,5.1
	c3,1,6.1,2.4,6.1,6.2c0,1.7-0.7,3-2.1,4l0,0c0,0,0,0-0.1,0l0,0c0,0-0.1,0-0.1,0.1c-1.2,0.8-2.7,1.2-4.1,1.6c0,0,0,2.6,0,2.6
	c2.1,1.1,4.7,2.6,4.5,7c0,1.1-0.5,1.4-0.8,1.5v0c-1.2,0.3-2.5,0.5-3.8,0.6c0,0.3,0,0.7,0,1c5.7-0.4,10.9-2.8,14.8-6.5l3.4,3.4
	c-5.2,5-12.2,8-19.9,8c-7.7,0-14.7-3-19.8-7.9l3.5-3.5c3.9,3.7,9,6,14.6,6.5c0-0.3,0-0.6,0-1c-5.4-0.4-10.2-2.7-13.9-6.2l0.9-0.9
	l1.3,0.1l0.7-0.7l1.8,0.1l0.3-0.6L32.1,50c2.6,1.9,5.6,3.2,9,3.6c0-0.4,0-0.7,0-1c-3.7-0.4-7.1-2-9.7-4.4l3.5-3.5
	c0.8,0.7,1.8,1.4,2.8,1.9c0.1-0.3,0.2-0.6,0.3-0.9c-0.9-0.4-1.7-1-2.5-1.7l3.5-3.5c0.5,0.4,1.2,0.8,1.8,1c0-0.3,0-0.7,0-1
	c-0.4-0.2-0.8-0.4-1.1-0.7l1-1c-0.3-0.1-0.7-0.2-1-0.3L39,39.3c-0.3-0.4-0.6-0.8-0.8-1.2c-0.6-0.3-1.2-0.6-1.7-0.9
	c-2.1-1.4-3.2-3.4-3.2-5.9c0-1.9,0.5-3.3,1.4-4.5l-3.4-3.4c2.5-2.4,5.7-4,9.2-4.5c0-0.3,0-0.7,0-1c-3.8,0.5-7.2,2.3-9.9,4.8
	l-0.6-0.6c-0.1,0.2-0.3,0.5-0.5,0.9l0.4,0.4c-3,3.2-4.8,7.4-4.9,12h-4.9c0.1-6,2.5-11.4,6.3-15.5l1.6,1.6c0.1,0,0.1,0,0.2,0
	c0.3,0,0.6-0.1,0.9-0.3l-2-2c1-1,2.2-1.9,3.4-2.7c0.1-0.3,0.2-0.6,0.2-0.7c0.1-0.1,0.4-0.5,0.7-1c-1.9,1-3.6,2.3-5.1,3.8l-3.4-3.4
	c4.5-4.4,10.5-7.3,17.1-8c0-0.1,0-0.2,0-0.2c0-0.2-0.1-0.5-0.1-0.7C24.9,7.7,13.3,20.4,13.3,35.7C13.3,52.1,26.6,65.4,42.9,65.4z
	 M49.4,44.9L49.4,44.9L49.4,44.9C49.4,44.9,49.4,44.9,49.4,44.9z M63.7,15.9c4.9,5.1,7.9,12,7.9,19.5h-4.9c0-3.7-1-7.3-2.5-10.4
	l0-0.1l0.3,0.2l0.1-0.3l-0.9-1.5l-1-1.4l-1.2-1c-0.4-0.5-0.9-1-1.3-1.5L63.7,15.9z M57.5,22.1l1.2,0.1l0.3,0.3L58.8,23l1.6,1l0.3,0
	l2.1,2.4l0.9-0.3c1.3,2.8,2.1,6,2.1,9.3h-4.9c0-1.3-0.2-2.5-0.5-3.7l0.2-0.3l0.3-1.5l-0.2-1.6l-0.6-1.9l-1.4-2l0.3,0.2l0.2-0.2
	l-1.1-0.7l-0.1,0.2l1.1,1.6l0.6,1.3l0.4,1.3l0.1,0.9l0.2,1.4l-0.4,0c0,0-0.5-0.9-0.6-1.2l0.2-0.3l-0.4-0.6v-0.6l-0.3-0.4l-0.4,0
	c-0.1-0.2-0.3-0.5-0.4-0.7l0.3,0.1l0.1-0.1l-0.1-0.3l0.3-0.2l-0.1-0.2L58.3,26l0.2-0.7l-0.3-0.2l-0.3,0.6c-0.5-0.8-1.1-1.6-1.8-2.3
	L57.5,22.1z M56.5,33.6l0.9-0.5l0.9-0.1l0.2-0.4l0.5-0.3l0.2-0.4l0.2-0.7c0.1,0.3,0.1,0.5,0.2,0.8l-0.5,1.4l0,0.5l0.7-0.9
	c0.1,0.8,0.2,1.7,0.2,2.6h-4.3L55.6,35l0.5-0.4l0.1-0.2l0.2-0.2l0.6-0.1l0.1-0.3L56.5,33.6z M50.7,30.2l0.4-0.1l0-0.1l-0.4-0.3
	l0.1-0.9l0.5-0.5c0.3,0.4,0.6,0.8,0.9,1.2L52.1,30l-0.5-0.3l-0.4,0.1l0.2,0.3h0.2l-0.2,0.5l-0.1-0.2L50.7,30.2z M52.6,46.4l-1.1-0.3
	l-0.3,0.1l-0.6-0.5L50,45.6c0.3-0.2,0.5-0.4,0.8-0.6l0.9,0.6l0.7,0.4l0.3,0.3L52.6,46.4z M52,27.6l3.5-3.5C56.3,25,57,26,57.6,27
	l-0.4,0.1l0,0.8l1.3,0.8c0.3,0.7,0.6,1.4,0.8,2.2l-0.2,0.3l-0.5,0.3l-0.1,0.7l-0.3,0.2l-0.3,0.3l-0.3-0.1l-0.5,0l0.3-0.4l0.2-1
	l0.3-0.2L57,30.2l-0.7,0.2l-0.2,0.7l-0.4,0.5l-0.5-0.4l-0.2-0.4l0.3-0.2l0.1,0.3l0.2-0.1l-0.1-0.4l-0.3,0l0,0.2l-0.2,0L54,29.3
	L53.7,29l0.1-0.1l0.3-0.1l-0.3-0.1c0,0-0.4,0.1-0.4,0.1l0.2,0.3l-0.5,0C52.8,28.5,52.4,28,52,27.6z M53.8,46l-0.5-0.5l0.4-0.5
	l0.5-0.9l-0.2-0.3l0.3-0.7l0-0.6L54,41.9l-0.4-0.2l-0.2,0.4l-0.3-0.1c0.4-0.6,0.8-1.1,1-1.8l0.4-0.2l0.2-0.3l0.1,0.1l0.3-0.4
	l-0.2-0.3l0.2-0.1l0.4,0.2l0.8,0l0.5-0.2l1.2-0.3l-0.2-0.4l-0.1-0.5l0.6,0.3l0.2-0.1l-0.1-0.5l-0.8,0.3l-0.9-0.2l-0.7-1.3H60
	c-0.2,4.3-1.9,8.2-4.7,11.1L54.7,47l0.2-0.7l-0.4-1.5L53.8,46z M54.4,55.5l0.5-1l-0.2-0.4l0.7-0.6v-0.4l-0.6-0.4l0.5-1l0.7-0.9
	l-0.7-0.8h-0.5l-0.3-0.5c0.3-0.2,0.6-0.5,0.8-0.7l3.5,3.5C57.4,53.5,56,54.6,54.4,55.5z M58.7,50.9l0.4-0.4l-0.4-1.9l-0.3-0.1
	l0.2-0.3l-0.8-0.3l-0.2,0.7l-0.1,0.9l-0.2,0.2l-1.5-1.5c3-3.1,4.8-7.2,5-11.8h4.9c-0.2,5.9-2.6,11.3-6.4,15.2L58.7,50.9z M60.1,52.3
	c4-4.1,6.5-9.7,6.7-15.9h4.9c-0.2,7.5-3.2,14.3-8.1,19.4L60.1,52.3z M30.7,47.5c-0.4-0.4-0.7-0.7-1-1.1l0.1-1.2L29.3,44l-0.1-1.9
	L28.6,41l0.1-0.7L28.1,39l-0.6-0.3l0.2-0.7l-0.3-0.6l0.3-0.6h0.7l0.2-0.4h1.1l0.2,0.3l-0.2,1.2l-0.1,0.2L30,39l-0.3,0.2l-0.2-0.2
	L29.4,39l0.2,0.6l0.3,0.6l0.2,0l0.1-0.6L30,39.4l0-0.4l0-0.8l0.2-1.4L30,36.4h0.8c0.2,3,1.4,5.7,3.4,7.7L30.7,47.5z M27.5,38
	L27,38.7h-0.8l-0.1,0c-0.1-0.8-0.2-1.5-0.3-2.3h1.5L27,37.5L27.5,38z M29.1,34.7l0.1-1l0.6-0.3l1,0.2l0.2,0.2
	c-0.1,0.5-0.1,1.1-0.2,1.7h-1.2L29.1,34.7z M34,38.3l0.2-0.1l0.6,0.5l-0.3,0.2l0.7,0.5l0-0.5l0.4-0.6l0.4,0.4l0.4,0.6l-0.7,0.2
	l0.3,0.7l0.5-0.3l-0.1-0.2l0.4-0.3l0.2-1.1c0.3,0.6,0.7,1.2,1.1,1.7l-3.4,3.4c-1.6-1.7-2.7-4-3-6.5l0.7,0.8l0.7,0L34,38.3z
	 M30.5,24.1l3.4,3.4c-0.7,0.8-1.3,1.7-1.8,2.6l-0.2,0l-0.5,0.2l-0.2,0l-0.5,0.5l0.7-0.1l0.6-0.1c0,0.1-0.1,0.1-0.1,0.2L31.3,31h-0.2
	l-0.8,0.6l-0.7-0.1l-1.1,2l0.2,0.4l-0.6,0.6l-0.1,0.8h-2.2C26,31,27.7,27,30.5,24.1z M26,50.1l1.1,0.6l0.2,0.2l-0.8,0.8
	c-0.4-0.4-0.7-0.8-1.1-1.2L26,50.1z M25,36.4c0,0.5,0.1,0.9,0.1,1.4l-0.6,0.1l-0.1,0.6l-1.2,1.6l0,2.2l-1.3,0.4l-0.7,0
	c-0.6-2-1-4.1-1.1-6.3H25z M20.1,42.7l-0.3-0.1l-0.3-0.3l-1.4-0.1l0.4,0.6l-1.3-0.2l0.3-0.3l-0.3-0.3l-0.9,0.4l-0.3,0.6l0.1,1.4
	l1.1,2.5l0.5,0.8l0.3,0.1l-0.8-1.5l-0.2-0.8l0.2-0.2l-0.1-0.4l0.5,0.1l0.7,1.1l0.2,0.1l0-0.8l0.3,0.2l0.1,0.4l0.8,0.2l0.3-0.2
	l0.1,0.1l0,0.6l0.3,0.4l0.4,0.1l0.9,1.5l0.5,0.2l0.2-0.7c1,1.6,2.1,3,3.4,4.3l-3.4,3.4c-4.9-5-8.1-11.9-8.2-19.4h4.9
	C19.2,38.6,19.5,40.7,20.1,42.7z M22.2,15.8l3.4,3.4c-4,4.2-6.5,9.9-6.6,16.1h-4.9C14.3,27.8,17.3,20.9,22.2,15.8z M57.6,14
	l-0.3-0.5l-0.6-0.3l-0.5,0.4l0.6,0.3l0.7,0.5L57.6,14z M54.6,27.8l0,0.4l0.8-0.3l0.3-0.5l-0.6-0.8l0.3-0.5l0.8,0.6l0.1-0.1l-0.2-0.1
	l-0.2-0.3l0.3-0.2l-0.3-0.4l-0.7,0.4l-0.3,0.4l-0.1,0.4l0.3,0.5l-0.1,0.3L54.6,27.8z M19.3,49.7l0.1-0.2l-0.4-1l-0.5-0.2L19.3,49.7z
	 M39.3,31.3c0,0.8,0.5,1.4,1.4,1.9c0,0,0-0.1,0-0.4l-0.6-0.6l0.3-0.5l0.2-0.1c0-1,0-2,0-2.2l0,0C39.7,30,39.3,30.5,39.3,31.3z
	 M44.8,50.6c1.9,1,3.8,2.4,3.5,5.8c-0.6-2-2-3.1-3.5-3.9C44.7,52.5,44.8,50.6,44.8,50.6z M45.2,27L45.2,27c-0.3,0.1-0.7,0.2-1,0.2
	c-0.9,0.2-1.9,0.5-2.7,0.7c-0.4,0.1-0.7,0.2-1,0.4c-1.4,0.6-2.3,1.5-2.3,3c0,1.5,1,2.4,2.4,3c0,1.2,0,2.4,0.1,3.6
	c-3.2-1-6.5-2.5-6.5-6.7c0-4.2,2.9-5.8,6.3-6.8l0,0c0.3-0.1,0.7-0.2,1-0.3c0.9-0.3,1.9-0.5,2.8-0.7c0.3-0.1,0.7-0.2,1-0.3
	c3-0.8,5.5-1.9,5.5-4.8c0-1.8-1.1-3.6-4.3-4.4c-0.2,0-0.5-0.1-1-0.1c0-0.3,0-1.5,0-1.8c0,0,0-1.1,0-1.5c0.6,0,1.3,0.1,1.7,0.2
	c5.4,1.2,7.6,4.6,7.6,7.6C54.9,24.5,49.8,25.9,45.2,27z M40.9,44.5c0.3-0.2,0.7-0.3,1-0.4c0.7-0.2,1.4-0.5,2-0.7
	c0.1,0,0.7-0.2,1-0.3c0.8-0.3,2-0.9,2-2c0-0.9-0.7-1.4-1.9-1.8c0-1,0-2.4,0.1-3.3c2.7,0.9,5.1,2.2,5.1,5.2c0,3-2.9,4-5.3,4.7l0,0
	c-0.3,0.1-0.7,0.2-1,0.4c-0.8,0.3-1.4,0.5-2,0.7c-0.4,0.2-0.9,0.5-0.9,1c0,0,0,2.6,0.1,2.9c-1.2-0.7-2.5-1.6-2.5-3.3
	C38.5,46,39.7,45.1,40.9,44.5z M40.2,11c-1.6,0.5-2.6,1.1-3,1.2c-1.1,0.4-2.6,0.4-4.1,2.1c-0.3,0.3-0.9,1.1-1.4,1.8
	c-0.5,0.7-0.5,1.8-0.8,2.3c-0.5,0.8-0.4,1.3-0.4,1.3l0,0c0,0.1-0.1,0.6-0.6,1.1c-0.5,0.6-1.2,0.9-2,0.8c0.7,0.4,1.7-0.1,1.7-0.1
	s-0.2,0.5-0.4,1.4c0.8-1.8,1.5-2.4,1.7-2.6c0.3,0.1,1,0,2.4-0.7c1.5-0.8,3.7-2.2,4.3-3.1c0.7-0.9,1.6-1.6,2.6-2
	C40.3,13.2,40.2,12,40.2,11z M33.8,16.9L33,17.1l1.1-1.7l1.1,0L33.8,16.9z M43.8,47.1c0,0-0.3,13.8-0.3,14c0,2.7-1.4,2.7-1.4,0
	c0-0.3-0.2-13.2-0.2-13.2c0-0.1,0.3-0.2,0.6-0.3c0.2-0.1,0.6-0.2,0.7-0.3C43.5,47.2,43.8,47.1,43.8,47.1z M41.6,29.1
	c0.7-0.3,1.6-0.5,2.6-0.8c0,2-0.3,13.3-0.3,14.1c-0.3,0.1-0.5,0.2-0.8,0.3c-0.4,0.1-0.8,0.2-1.2,0.4C41.9,41.8,41.6,30.6,41.6,29.1z
	 M44.7,7.5c0,0.1-0.3,12.2-0.3,15c-0.4,0.1-0.7,0.2-1.1,0.3c-0.6,0.1-1.1,0.3-1.7,0.4c-0.1-2.9-0.4-15.6-0.4-15.7
	C40.8,5.6,39.2,0,43,0C46.9,0,44.9,5.5,44.7,7.5z M105.2,18L105.2,18l-3.3,17.6h-4.4l-4.1-21.5h3.5l2.9,16.6h0.1l3.1-16.6h4.6
	l3,16.6h0.1l3-16.6h3.4l-4.2,21.5h-4.5L105.2,18z M123.2,19.5c3.1,0,6.6,1.7,6.6,8.2c0,6.6-3.5,8.2-6.6,8.2c-3.1,0-6.7-1.5-6.7-8.2
	C116.5,21.2,120.1,19.5,123.2,19.5z M123.2,33.1c2.3,0,2.9-2.8,2.9-5.5c0-2.6-0.5-5.4-2.9-5.4c-2.3,0-2.9,2.8-2.9,5.4
	C120.3,30.3,120.8,33.1,123.2,33.1z M132.1,22.4c0-1,0-1.9-0.1-2.6h3.3c0,1,0.1,1.9,0.1,2.9h0.1c0.4-1.2,1.6-3.1,3.8-3.1
	c0.2,0,0.4,0.1,0.6,0.1v3.6c-0.3-0.1-0.6-0.2-1-0.2c-1.5,0-3.1,1-3.1,3.9v8.7h-3.6V22.4z M142.2,12.5h3.6v23.1h-3.6V12.5z M161,12.5
	v20.4c0,1.1,0,2.1,0.1,2.7h-3.4c-0.1-0.5-0.1-1.4-0.1-2.5h-0.1c-0.6,1.4-1.7,2.7-4,2.7c-3.8,0-5.3-3.8-5.3-8.2c0-5.2,2-8.2,5.2-8.2
	c2.2,0,3.4,1.3,3.9,2.5h0.1v-9.5H161z M154.4,33c2.1,0,2.9-2.4,2.9-5.4c0-3.1-0.8-5.3-2.8-5.3c-2,0-2.7,2.1-2.7,5.2
	C151.8,31.2,152.3,33,154.4,33z M172.9,14.1h3.8v8.7h6.1v-8.7h3.8v21.5h-3.8v-9.5h-6.1v9.5h-3.8V14.1z M200.4,34.8
	c-0.8,0.3-2.3,1-4.5,1c-4.9,0-7-3.7-7-7.9c0-4.7,2.4-8.4,6.2-8.4c3.3,0,6,2,6,8.5v0.7h-8.7c0,2.7,1,4.3,3.8,4.3c2.2,0,3.3-0.7,4-1.2
	L200.4,34.8z M197.7,26.3c0-2.8-0.9-4.2-2.5-4.2c-1.9,0-2.7,2.1-2.7,4.2H197.7z M204.4,20.7c1-0.5,2.5-1.2,4.8-1.2
	c4.7,0,5.8,2.4,5.8,6.4v6.9c0,1.1,0.1,2.2,0.2,2.8h-3.3c-0.2-0.6-0.2-1.4-0.2-2.2h-0.1c-0.9,1.3-2.1,2.4-4.2,2.4
	c-2.3,0-4.5-1.7-4.5-4.6c0-4.3,3.3-5.4,7.9-5.4h0.7v-0.6c0-1.6-0.7-3-2.8-3c-1.8,0-3.4,0.9-4.1,1.5L204.4,20.7z M211.6,27.8h-0.3
	c-3.1,0-5,0.7-5,3c0,1.4,0.9,2.4,2.3,2.4c2.2,0,3-1.7,3-4.5V27.8z M218.5,12.5h3.6v23.1h-3.6V12.5z M226.7,16.5l3.6-1.2v4.4h3v2.8
	h-3v8.2c0,1.7,0.6,2.2,1.6,2.2c0.6,0,1.1-0.2,1.4-0.3v2.7c-0.6,0.3-1.3,0.5-2.4,0.5c-2.7,0-4.2-1.3-4.2-4.6v-8.7h-2.4v-2.8h2.4V16.5
	z M235.3,12.5h3.6v9.3h0.1c0.6-1,1.5-2.3,3.8-2.3c3.4,0,4.5,2.7,4.5,5.9v10.2h-3.6v-9.5c0-2.4-0.6-3.4-2.1-3.4
	c-1.9,0-2.6,1.7-2.6,3.7v9.2h-3.6V12.5z M101.4,41.3c4.3,0,8.1,3.3,8.1,11c0,7.7-3.9,11-8.1,11c-4.2,0-8.1-3.3-8.1-11
	C93.2,44.6,97.1,41.3,101.4,41.3z M101.4,60.4c2.4,0,4.3-2.1,4.3-8c0-5.9-1.9-8-4.3-8c-2.4,0-4.3,2.1-4.3,8
	C97.1,58.3,99,60.4,101.4,60.4z M112,49.9c0-1,0-1.9-0.1-2.6h3.3c0,1,0.1,1.9,0.1,2.9h0.1c0.4-1.2,1.6-3.1,3.8-3.1
	c0.2,0,0.4,0.1,0.6,0.1v3.6c-0.3-0.1-0.6-0.2-1-0.2c-1.5,0-3.1,1-3.1,3.9v8.7H112V49.9z M122,65.6c0.8,0.5,2.5,1.4,4.5,1.4
	c3.4,0,4-2.5,4-5v-1.5h-0.1c-0.6,1.2-1.6,2.7-4,2.7c-2.1,0-5.3-1.5-5.3-7.9c0-4.4,1.5-8.2,5.5-8.2c2.2,0,3.2,1.3,4,2.7h0.1
	c0-0.8,0.1-1.6,0.1-2.5h3.3c-0.1,0.8-0.1,1.7-0.1,2.5v11.7c0,5-1.4,8.5-7,8.5c-2.4,0-4.3-0.6-5.2-1L122,65.6z M127.7,60.3
	c2.3,0,3.2-1.7,3.2-5.3c0-3.3-1.2-5.1-2.9-5.1c-1.9,0-2.6,1.9-2.6,5.1C125.3,58.7,126.4,60.3,127.7,60.3z M137.9,48.2
	c1-0.5,2.5-1.2,4.8-1.2c4.7,0,5.8,2.4,5.8,6.4v6.9c0,1.1,0.1,2.2,0.2,2.8h-3.3c-0.2-0.6-0.2-1.4-0.2-2.2h-0.1
	c-0.9,1.3-2.1,2.4-4.2,2.4c-2.3,0-4.5-1.7-4.5-4.6c0-4.3,3.3-5.4,7.9-5.4h0.7v-0.6c0-1.6-0.7-3-2.8-3c-1.8,0-3.4,0.9-4.1,1.5
	L137.9,48.2z M145,55.3h-0.3c-3.1,0-5,0.7-5,3c0,1.4,0.9,2.4,2.3,2.4c2.2,0,3-1.7,3-4.5V55.3z M152.1,49.9c0-1,0-1.9-0.1-2.6h3.4
	c0,0.8,0.1,1.6,0.1,2.4h0.1h0c0.5-1,1.6-2.7,4-2.7c3.4,0,4.5,2.7,4.5,5.9v10.2h-3.6v-9.5c0-2.4-0.6-3.4-2.1-3.4
	c-1.9,0-2.6,1.7-2.6,3.7v9.2h-3.6V49.9z M167.3,40.5h3.8v3.8h-3.8V40.5z M167.4,47.2h3.6v15.8h-3.6V47.2z M174.4,59.8l6.4-9.7h-6.2
	v-2.9h9.9v3.3l-6.3,9.7h6.5v2.9h-10.3V59.8z M188.1,48.2c1-0.5,2.5-1.2,4.8-1.2c4.7,0,5.8,2.4,5.8,6.4v6.9c0,1.1,0.1,2.2,0.2,2.8
	h-3.3c-0.2-0.6-0.2-1.4-0.2-2.2h-0.1c-0.9,1.3-2,2.4-4.2,2.4c-2.3,0-4.5-1.7-4.5-4.6c0-4.3,3.3-5.4,7.9-5.4h0.7v-0.6
	c0-1.6-0.7-3-2.8-3c-1.8,0-3.4,0.9-4.1,1.5L188.1,48.2z M195.3,55.3h-0.3c-3.1,0-5,0.7-5,3c0,1.4,0.9,2.4,2.3,2.4c2.2,0,3-1.7,3-4.5
	V55.3z M202.8,44l3.6-1.2v4.4h3V50h-3v8.2c0,1.7,0.6,2.2,1.6,2.2c0.6,0,1.1-0.2,1.4-0.3v2.7c-0.6,0.3-1.3,0.5-2.4,0.5
	c-2.7,0-4.2-1.3-4.2-4.6V50h-2.4v-2.8h2.4V44z M212,40.5h3.8v3.8H212V40.5z M212.4,47.2h3.6v15.8h-3.6V47.2z M225.5,47
	c3.1,0,6.6,1.7,6.6,8.2c0,6.6-3.5,8.2-6.6,8.2c-3.1,0-6.7-1.5-6.7-8.2C218.9,48.7,222.4,47,225.5,47z M225.5,60.6
	c2.3,0,2.9-2.8,2.9-5.5c0-2.6-0.5-5.4-2.9-5.4c-2.3,0-2.9,2.8-2.9,5.4C222.6,57.8,223.2,60.6,225.5,60.6z M235.3,49.9
	c0-1,0-1.9-0.1-2.6h3.4c0,0.8,0.1,1.6,0.1,2.4h0.1h0c0.5-1,1.6-2.7,4-2.7c3.4,0,4.5,2.7,4.5,5.9v10.2h-3.6v-9.5
	c0-2.4-0.6-3.4-2.1-3.4c-1.9,0-2.6,1.7-2.6,3.7v9.2h-3.6V49.9z M16.4,95.2l6.2,19.1h-2.5l-1.5-5h-7.3l-1.5,5H7.4l6.4-19.1H16.4z
	 M17.9,107.2L15,97.7H15l-3,9.5H17.9z M25.6,102.1h-2.2v-1.9h2.2v-3.1c0-2.3,1-3.8,3.5-3.8c0.6,0,1.3,0.1,1.8,0.2v2
	c-0.3-0.2-0.8-0.3-1.3-0.3c-1.3,0-1.7,0.7-1.7,2.1v2.9h2.5v1.9h-2.5v12.1h-2.3V102.1z M32.3,103.3c0-1-0.1-2-0.1-3h2.2l0.1,2.2h0.1
	c0.7-1.7,1.9-2.4,4-2.4v2.3c-0.3-0.1-0.6-0.1-0.9-0.1c-1.8,0-3,1.5-3,4.6v7.4h-2.3V103.3z M43,94.6v2.7h-2.5v-2.7H43z M40.6,100.3
	h2.3v13.9h-2.3V100.3z M54.8,102.7c-0.8-0.4-1.6-0.7-2.6-0.7c-2.2,0-3.8,1.6-3.8,5.3c0,3.2,1.5,5.1,3.8,5.1c1.1,0,2-0.3,2.8-0.7
	l0.1,2.1c-0.7,0.3-1.9,0.6-2.9,0.6c-4.2,0-6.2-3.1-6.2-7c0-4.5,2.3-7.3,6.2-7.3c1,0,2,0.2,2.8,0.5L54.8,102.7z M57.8,101.2
	c1.1-0.7,2.6-1.1,3.9-1.1c2,0,3.3,0.9,3.7,1.3c0.6,0.6,1.2,1.4,1.2,3.4v7.3c0,0.8,0.1,1.6,0.1,2.1h-2.1l-0.1-1.9h-0.1
	c-0.6,1.1-1.8,2.1-3.9,2.1c-2.3,0-4-1.3-4-4c0-2.7,1.8-4.7,6.6-4.7h1.3v-0.6c0-1-0.1-1.6-0.5-2.2c-0.5-0.6-1.4-0.9-2.3-0.9
	c-1.4,0-2.8,0.6-3.6,1.4L57.8,101.2z M64.5,107.4c-0.4-0.1-1-0.1-1.6-0.1c-2.7,0-4,1.3-4,2.9c0,1.5,0.8,2.4,2.3,2.4
	c2,0,3.3-1.6,3.3-3.5V107.4z M70,103.3c0-1-0.1-2-0.1-3h2.2l0.1,2.1h0.1c0.7-1.6,1.9-2.3,3.5-2.3c2.4,0,4.1,1.4,4.1,4.5v9.7h-2.3v-9
	c0-2.2-0.8-3.2-2.3-3.2c-1.8,0-2.9,1.3-2.9,3.8v8.4H70V103.3z M90.3,95.2h4.9c2,0,3.1,0.5,4,1.3c1,0.9,1.4,2.2,1.4,3.6
	c0,2-1,4-3.8,4.6v0.1c1.1,0.2,1.7,0.8,2.1,1.9l2.7,7.6H99l-2.2-6.4c-0.5-1.6-1.2-2.2-3-2.2h-1.1v8.6h-2.4V95.2z M92.7,103.6h1.9
	c2.6,0,3.6-1.7,3.6-3.4c0-2.1-1.4-3.1-3.5-3.1h-1.9V103.6z M105.8,107.9c0,3.2,1.3,4.7,3.8,4.7c1.1,0,2.4-0.6,3.2-1.1l0.1,2.1
	c-1.1,0.5-2.5,0.8-3.9,0.8c-3.7,0-5.6-2.8-5.6-7.2s1.9-7.2,5.4-7.2c3.1,0,4.9,2.5,4.9,6.6v1.2H105.8z M111.4,106.2
	c0-2.9-0.9-4.3-2.7-4.3c-1.5,0-2.8,1.1-2.8,4.3H111.4z M126.4,114.8c0,3.9-2.9,5.5-6,5.5c-1.2,0-3.1-0.4-4.1-0.8l0.1-2.3
	c1,0.7,2.6,1.2,3.8,1.2c2.8,0,3.9-1.7,3.9-4.1v-2.2h-0.1c-0.9,1.6-2.1,2.3-3.7,2.3c-2.9,0-4.8-2.3-4.8-7.2c0-4.8,1.9-7.2,5.1-7.2
	c1.4,0,2.6,0.9,3.4,2.2h0.1l0.1-2h2.2c0,0.8-0.1,1.7-0.1,2.5V114.8z M121,112.6c2.1,0,3.1-1.8,3.1-5.3s-1-5.3-3.1-5.3
	c-2.1,0-3.1,1.8-3.1,5.3S118.9,112.6,121,112.6z M132.2,94.6v2.7h-2.5v-2.7H132.2z M129.8,100.3h2.3v13.9h-2.3V100.3z M140.6,100.1
	c3.7,0,5.6,2.8,5.6,7.2s-1.9,7.2-5.6,7.2c-3.7,0-5.6-2.8-5.6-7.2S136.9,100.1,140.6,100.1z M140.6,112.6c2.2,0,3.2-1.8,3.2-5.3
	s-1-5.3-3.2-5.3c-2.2,0-3.2,1.8-3.2,5.3S138.4,112.6,140.6,112.6z M148.9,103.3c0-1-0.1-2-0.1-3h2.2l0.1,2.1h0.1
	c0.7-1.6,1.9-2.3,3.5-2.3c2.4,0,4.1,1.4,4.1,4.5v9.7h-2.3v-9c0-2.2-0.8-3.2-2.3-3.2c-1.8,0-3,1.3-3,3.8v8.4h-2.3V103.3z M247.2,85.2
	H8V84h239.2V85.2z"/>
<g>
</g>
<g>
</g>
<g>
</g>
<g>
</g>
<g>
</g>
<g>
</g>
</svg>
